<svg width="11" height="10" viewBox="0 0 11 10" fill="none" xmlns="http://www.w3.org/2000/svg">
<path d="M10.4262 0.875C10.4262 0.653986 10.3359 0.442025 10.1751 0.285744C10.0144 0.129464 9.79643 0.0416668 9.56913 0.0416668L2.71299 0C2.48569 0 2.26771 0.0877975 2.10698 0.244078C1.94626 0.400358 1.85597 0.61232 1.85597 0.833333C1.85597 1.05435 1.94626 1.26631 2.10698 1.42259C2.26771 1.57887 2.48569 1.66667 2.71299 1.66667H7.47801L0.390467 8.575C0.31014 8.65247 0.246383 8.74464 0.202874 8.84619C0.159364 8.94774 0.136963 9.05666 0.136963 9.16667C0.136963 9.27668 0.159364 9.3856 0.202874 9.48715C0.246383 9.5887 0.31014 9.68086 0.390467 9.75833C0.470138 9.83644 0.564926 9.89844 0.669361 9.94074C0.773797 9.98305 0.885814 10.0048 0.998951 10.0048C1.11209 10.0048 1.2241 9.98305 1.32854 9.94074C1.43298 9.89844 1.52776 9.83644 1.60743 9.75833L8.71212 2.85V7.5C8.71212 7.72101 8.80241 7.93298 8.96313 8.08926C9.12385 8.24554 9.34184 8.33333 9.56913 8.33333C9.79643 8.33333 10.0144 8.24554 10.1751 8.08926C10.3359 7.93298 10.4262 7.72101 10.4262 7.5V0.875Z" fill="#D9D9D9"/>
</svg>
