<svg width="19" height="19" viewBox="0 0 19 19" fill="none" xmlns="http://www.w3.org/2000/svg">
<path d="M9.5 9.07682C10.594 9.07682 11.6432 8.625 12.4167 7.82077C13.1903 7.01654 13.6249 5.92576 13.6249 4.78841C13.6249 3.65105 13.1903 2.56028 12.4167 1.75605C11.6432 0.951813 10.594 0.5 9.5 0.5C8.40602 0.5 7.35684 0.951813 6.58328 1.75605C5.80972 2.56028 5.37514 3.65105 5.37514 4.78841C5.37514 5.92576 5.80972 7.01654 6.58328 7.82077C7.35684 8.625 8.40602 9.07682 9.5 9.07682ZM9.5 10.9609C4.01573 10.9609 0.5 14.1074 0.5 15.6394V18.5H18.5V15.6394C18.5 13.7867 15.1716 10.9609 9.5 10.9609Z" fill="#E9E9E9"/>
</svg>
