<svg width="18" height="23" viewBox="0 0 18 23" fill="none" xmlns="http://www.w3.org/2000/svg">
<path d="M15.75 7.66667H14.625V5.47619C14.625 2.45333 12.105 0 9 0C5.895 0 3.375 2.45333 3.375 5.47619V7.66667H2.25C1.0125 7.66667 0 8.65238 0 9.85714V20.8095C0 22.0143 1.0125 23 2.25 23H15.75C16.9875 23 18 22.0143 18 20.8095V9.85714C18 8.65238 16.9875 7.66667 15.75 7.66667ZM9 17.5238C7.7625 17.5238 6.75 16.5381 6.75 15.3333C6.75 14.1286 7.7625 13.1429 9 13.1429C10.2375 13.1429 11.25 14.1286 11.25 15.3333C11.25 16.5381 10.2375 17.5238 9 17.5238ZM12.4875 7.66667H5.5125V5.47619C5.5125 3.60333 7.07625 2.08095 9 2.08095C10.9237 2.08095 12.4875 3.60333 12.4875 5.47619V7.66667Z" fill="#E9E9E9"/>
</svg>
